<?xml version="1.0" encoding="utf-8"?>
<!-- Generator: Adobe Illustrator 20.0.0, SVG Export Plug-In . SVG Version: 6.00 Build 0)  -->
<svg version="1.1" id="Layer_1" xmlns="http://www.w3.org/2000/svg" xmlns:xlink="http://www.w3.org/1999/xlink" x="0px" y="0px"
	 viewBox="0 0 24 24" style="enable-background:new 0 0 24 24;" xml:space="preserve">
<style type="text/css">
	.st0{fill:#DF423C;}
</style>
<path class="st0" d="M9.1,13.9h3.3c2,0,2.9-0.4,3.7-1.1C17,12,17.3,11,17.3,9.6c0-1.3-0.3-2.3-1.2-3.1c-0.9-0.8-1.7-1.2-3.7-1.2H6.7
	v13.3h2.4V13.9 M21.3,0C22.8,0,24,1.2,24,2.7v18.7c0,1.5-1.2,2.7-2.7,2.7H2.7C1.2,24,0,22.8,0,21.3V2.7C0,1.2,1.2,0,2.7,0H21.3
	 M9.1,12V7.2h3.1c0.9,0,1.6,0.3,2,0.8c0.4,0.5,0.7,1,0.7,1.7c0,0.7-0.2,1.3-0.7,1.7c-0.4,0.4-0.9,0.7-1.8,0.7H9.1z"/>
</svg>
